:SAMPLES-PER-SECOND 30
:FULLY-SPECIFIED
:DEGREES
366
root  -7.57035 30.7255 -0.914399 5.31221 -7.80571 1.33395
RightUpLeg  -29.0256 1.80246 -16.0271
RightLeg  42.6107 6.89656 5.51413
RightFoot  -6.01835 -0.059574 -0.75577
RightToes  -56.5878 -0.36262 -0.388474
Spine  7.53321 -4.01951 0.418673
Spine1  14.5254 -7.72071 -0.845838
HEad  -40.3255 -49.9705 62.9215
LeftShoulder1  0 -2.42657e-020 -4.95415e-022
LeftArm  -19.7973 1.50063 -74.9353
LeftForeArm  49.8067 -33.8538 -6.76289
LeftHand  0.3437 -11.83 -3.68858
RightShoulder  0 2.42657e-020 1.07489e-018
RightArm  -54.7076 3.37871 75.9548
RightForeArm  67.7344 10.1552 1.74724
RightHand  -1.86661 19.908 -10.2398
LeftUpLeg  -15.6917 -17.4003 22.4138
LeftLeg  32.6717 -5.5064 -3.04751
LeftFoot  -7.05763 0.0298505 0.484044
LeftToes  -22.1399 1.33192e-006 1.13262e-007
367
root  -6.25921 30.5442 -0.897648 5.30762 -7.44894 0.588074
RightUpLeg  -27.7732 1.42615 -17.5814
RightLeg  40.1671 7.32312 5.3643
RightFoot  -4.57286 -0.0384021 -0.584327
RightToes  -58.5094 -0.380528 -0.394195
Spine  7.26206 -4.3945 0.618227
Spine1  14.085 -8.7779 0.195661
HEad  -39.7915 -51.0926 63.2961
LeftShoulder1  0 -2.42657e-020 -4.95415e-022
LeftArm  -15.5638 1.38929 -76.2253
LeftForeArm  50.8218 -36.0571 -7.34558
LeftHand  0.313304 -12.0405 -3.34198
RightShoulder  0 2.42657e-020 1.07489e-018
RightArm  -63.0416 -0.519995 74.95
RightForeArm  68.7705 8.12836 1.37971
RightHand  -1.75284 18.6094 -10.3018
LeftUpLeg  -15.3421 -18.4051 22.6057
LeftLeg  31.3334 -8.89576 -4.63584
LeftFoot  -6.91033 0.0570147 0.944278
LeftToes  -44.1641 1.33192e-006 1.13262e-007
368
root  -4.75254 30.5116 -0.836501 5.13095 -7.81596 0.127533
RightUpLeg  -25.4816 1.44279 -19.6285
RightLeg  35.4123 8.26096 5.06382
RightFoot  -1.58044 -0.00744394 -0.162215
RightToes  -60.8055 -0.402163 -0.400239
Spine  7.01144 -4.65383 0.74089
Spine1  13.6333 -9.51582 0.933433
HEad  -38.9085 -52.0669 63.7098
LeftShoulder1  0 -2.42657e-020 -4.95415e-022
LeftArm  -12.1206 1.12933 -77.9625
LeftForeArm  50.8741 -36.8856 -7.57406
LeftHand  0.260973 -12.2535 -2.8024
RightShoulder  0 2.42657e-020 1.07489e-018
RightArm  -67.9837 -4.22954 73.6935
RightForeArm  68.7146 6.75954 1.13571
RightHand  -1.64377 17.5973 -10.2239
LeftUpLeg  -14.7282 -17.586 20.9818
LeftLeg  30.7788 -10.2903 -5.22612
LeftFoot  -10.9242 0.18981 1.98481
LeftToes  -43.8925 1.33192e-006 1.13262e-007
369
root  -3.02577 30.627 -0.799825 5.23016 -8.68713 -0.0625916
RightUpLeg  -22.5595 0.854413 -22.0007
RightLeg  28.0828 9.85796 4.43625
RightFoot  3.66972 -0.012461 0.766378
RightToes  -62.5597 -0.418846 -0.40427
Spine  6.72411 -4.82375 0.878673
Spine1  13.0737 -9.99147 1.5039
HEad  -38.421 -52.7836 64.5585
LeftShoulder1  0 -2.42657e-020 -4.95415e-022
LeftArm  -10.0123 0.317901 -80.5163
LeftForeArm  50.3837 -35.7694 -7.2682
LeftHand  0.260952 -12.3575 -2.78157
RightShoulder  0 2.42657e-020 1.07489e-018
RightArm  -70.0825 -7.48688 72.5178
RightForeArm  68.4159 6.33527 1.06111
RightHand  -1.53296 17.145 -9.77684
LeftUpLeg  -15.2765 -15.6733 18.0413
LeftLeg  32.3486 -9.71278 -5.27396
LeftFoot  -14.2949 0.322152 2.56861
LeftToes  -39.3561 1.33192e-006 1.13262e-007
370
root  -1.22927 30.8247 -0.857293 5.53998 -10.4174 -0.118271
RightUpLeg  -19.9913 1.67469 -24.3394
RightLeg  19.5352 9.85465 2.78306
RightFoot  11.5987 -0.175275 2.10303
RightToes  -62.8956 -0.422053 -0.404983
Spine  6.50094 -4.75196 0.958962
Spine1  12.6257 -9.93499 1.86736
HEad  -38.1667 -52.8973 65.5994
LeftShoulder1  0 -2.42657e-020 -4.95415e-022
LeftArm  -8.60727 -1.05488 -83.1373
LeftForeArm  49.9811 -33.2716 -6.61334
LeftHand  0.307493 -12.1201 -3.26759
RightShoulder  0 2.42657e-020 1.07489e-018
RightArm  -70.9474 -9.8522 72.0579
RightForeArm  68.4619 6.5337 1.09622
RightHand  -1.59404 17.2009 -10.1444
LeftUpLeg  -17.6801 -15.3787 15.0656
LeftLeg  36.6513 -8.47474 -5.46522
LeftFoot  -15.4509 0.344979 2.54259
LeftToes  -36.4045 1.33192e-006 1.13262e-007
371
root  0.462206 31.0467 -0.96311 5.56674 -13.4051 0.138412
RightUpLeg  -19.317 0.167122 -25.5975
RightLeg  13.46 8.49666 1.46055
RightFoot  21.3668 -0.520267 3.13474
RightToes  -60.308 -0.397455 -0.399003
Spine  6.46639 -4.39029 0.741641
Spine1  12.5667 -9.26979 1.62501
HEad  -36.9448 -52.401 65.2519
LeftShoulder1  0 -2.42657e-020 -4.95415e-022
LeftArm  -7.76051 -2.59634 -84.8011
LeftForeArm  50.0427 -30.262 -5.8729
LeftHand  0.371592 -12.1966 -3.84912
RightShoulder  0 2.42657e-020 1.07489e-018
RightArm  -71.453 -11.4163 72.8919
RightForeArm  68.8837 7.0625 1.18918
RightHand  -1.77291 17.9023 -10.8546
LeftUpLeg  -18.4033 -13.7045 11.6505
LeftLeg  38.5893 -7.18432 -4.99251
LeftFoot  -16.0271 0.322087 2.28754
LeftToes  -32.1843 1.33192e-006 1.13262e-007
